<?xml version="1.0" encoding="UTF-8"?>
<!DOCTYPE svg PUBLIC "-//W3C//DTD SVG 1.1//EN" "http://www.w3.org/Graphics/SVG/1.1/DTD/svg11.dtd">
<!-- Creator: CorelDRAW -->
<svg xmlns="http://www.w3.org/2000/svg" xml:space="preserve" width="38mm" height="22mm" style="shape-rendering:geometricPrecision; text-rendering:geometricPrecision; image-rendering:optimizeQuality; fill-rule:evenodd; clip-rule:evenodd"
viewBox="0 0 38 22"
 xmlns:xlink="http://www.w3.org/1999/xlink">
 <defs>
  <style type="text/css">
   <![CDATA[
    .fil20 {fill:#0068AA}
    .fil3 {fill:#16376F}
    .fil2 {fill:#17366D}
    .fil4 {fill:#1B3871}
    .fil0 {fill:#1B468C}
    .fil1 {fill:#1C366B}
    .fil7 {fill:#385395}
    .fil8 {fill:#4E5F9C}
    .fil9 {fill:#616CA6}
    .fil10 {fill:#6E79AE}
    .fil11 {fill:#8187B9}
    .fil12 {fill:#8F93BF}
    .fil13 {fill:#9EA4CB}
    .fil14 {fill:#B1B6D6}
    .fil15 {fill:#C8CBE3}
    .fil18 {fill:#DA251D}
    .fil19 {fill:#DB2925}
    .fil16 {fill:#E4E4EE}
    .fil6 {fill:#F9EC00}
    .fil5 {fill:white}
    .fil17 {fill:#DA251D}
   ]]>
  </style>
 </defs>
 <g id="Layer_x0020_1">
  <metadata id="CorelCorpID_0Corel-Layer"/>
  <g id="_93379280">
   <g>
    <path id="_115537536" class="fil0" d="M0.4808 8.1974l0 6.1478c0,1.2474 2.0428,2.7622 5.3757,4.0095 2.1502,0.8909 6.8271,2.3167 13.1166,2.3167 10.4825,-0.0001 18.546,-3.9204 18.546,-7.2171l0 -5.2569c0,-3.2966 -8.0635,-7.2169 -18.546,-7.2169 -10.4288,-0.0001 -18.4923,3.9203 -18.4923,7.2169z"/>
    <path id="_115537464" class="fil1" d="M1.2334 13.7216c0,1.6037 6.2895,5.2569 17.7397,5.2569 11.5039,0 17.7933,-4.0986 17.7933,-5.6133l0 -5.0786c0,-1.5148 -6.2894,-5.6133 -17.7933,-5.6133 -11.4502,0 -17.7397,4.0095 -17.7397,5.5242l0 5.5241z"/>
    <path id="_115537392" class="fil2" d="M1.2872 13.7216c0,1.5148 6.2895,5.1678 17.6859,5.1678 11.4501,-0.0001 17.7396,-4.0095 17.7396,-5.6132l0 -4.9006c0,-1.6038 -6.2895,-5.6131 -17.7396,-5.6131 -11.3964,0 -17.6859,3.9203 -17.6859,5.435l0 5.5241z"/>
    <path id="_115537320" class="fil3" d="M1.341 13.7216c0,1.5148 6.2357,5.0787 17.6321,5.0787 11.4501,0 17.6858,-4.0095 17.6858,-5.5241l0.0001 -4.9006c0,-1.5146 -6.2358,-5.524 -17.6859,-5.524 -11.3964,-0.0001 -17.6321,3.9203 -17.6321,5.435l0 5.435z"/>
    <path id="_115537248" class="fil4" d="M1.3947 13.6324c0,1.5148 6.2357,5.0788 17.5784,5.0788 11.3964,-0.0001 17.6321,-3.9204 17.6321,-5.435l0 -4.9006c0,-1.5146 -6.2358,-5.4349 -17.6321,-5.4349 -11.3427,-0.0001 -17.5784,3.8312 -17.5784,5.3459l0 5.3458z"/>
    <path id="_115537176" class="fil5" d="M1.4484 13.6324c0,1.5148 6.2358,4.9897 17.5247,4.9897 11.3426,0 17.5784,-3.9204 17.5784,-5.435l0 -4.8115c0,-1.4255 -6.2358,-5.3458 -17.5784,-5.3458 -11.2889,0 -17.5247,3.8312 -17.5247,5.2568l0 5.3458z"/>
    <path id="_115537104" class="fil6" d="M1.1259 13.7216c0,0.9801 1.8277,2.3166 4.6768,3.3858 2.5266,0.891 6.8271,2.1383 13.1704,2.1383 6.3432,-0.0001 10.6975,-1.3364 13.2241,-2.4056 2.7953,-1.0693 4.6768,-2.4948 4.6768,-3.4749l0 -5.0786c0,-0.98 -1.8815,-2.4057 -4.6768,-3.564 -2.5266,-0.9801 -6.8809,-2.3165 -13.2241,-2.3165 -6.2895,0 -10.6438,1.3364 -13.1704,2.3165 -2.7953,1.0691 -4.6768,2.4948 -4.6768,3.4749l0 5.5241zm0.2151 -5.5242c0,-1.3364 6.0744,-5.3458 17.6321,-5.3458 11.4501,-0.0001 17.6858,4.0985 17.6858,5.435l0.0001 5.0785c0,1.3366 -6.2358,5.4352 -17.6859,5.4352 -11.5577,0 -17.6321,-3.7422 -17.6321,-5.0787l0 -5.5242z"/>
    <path id="_115537032" class="fil0" d="M1.9323 6.861c0.43,-0.4456 0.7525,-0.9801 0.645,-1.2474 -0.0537,-0.2672 -0.5376,-0.0891 -0.9676,0.4455 -0.4838,0.4455 -0.8064,0.9801 -0.6988,1.2475 0.1075,0.2671 0.5375,0.089 1.0214,-0.4456z"/>
    <path id="_115536960" class="fil7" d="M1.8785 6.861c0.43,-0.4456 0.7526,-0.9801 0.6451,-1.1583 -0.0538,-0.2674 -0.4839,-0.0891 -0.9139,0.3564 -0.43,0.4455 -0.7526,0.9801 -0.6451,1.1583 0.1075,0.2673 0.4838,0.0892 0.9139,-0.3564z"/>
    <path id="_115536888" class="fil8" d="M1.8785 6.861c0.43,-0.4456 0.6451,-0.891 0.5913,-1.1583 -0.0537,-0.1782 -0.4838,0 -0.8601,0.3564 -0.3763,0.4455 -0.6451,0.891 -0.5913,1.1583 0.0537,0.1781 0.4838,0 0.8601,-0.3564z"/>
    <path id="_115536816" class="fil9" d="M1.8785 6.7718c0.3763,-0.3564 0.5913,-0.8018 0.5376,-0.98 -0.0538,-0.1783 -0.4301,-0.0891 -0.8064,0.3565 -0.3763,0.3563 -0.5913,0.8018 -0.5376,0.98 0.0538,0.1783 0.4301,0 0.8064,-0.3565z"/>
    <path id="_115536744" class="fil10" d="M1.8785 6.7718c0.3225,-0.3564 0.5376,-0.7127 0.4838,-0.8909 -0.0538,-0.1782 -0.3763,-0.0891 -0.7526,0.2674 -0.3225,0.3563 -0.5376,0.7127 -0.4838,0.8909 0.0538,0.1782 0.3763,0.0891 0.7526,-0.2674z"/>
    <path id="_115536672" class="fil11" d="M1.8248 6.7718c0.3225,-0.3564 0.5375,-0.7127 0.4837,-0.8909 -0.0537,-0.1782 -0.3762,0 -0.645,0.2674 -0.3225,0.3563 -0.5376,0.7127 -0.4838,0.8909 0.0537,0.0891 0.3762,0 0.6451,-0.2674z"/>
    <path id="_115536600" class="fil12" d="M1.8248 6.6828c0.2687,-0.2674 0.4837,-0.6237 0.43,-0.7128 -0.0538,-0.1783 -0.3225,-0.0891 -0.5913,0.2674 -0.2688,0.2672 -0.4838,0.5345 -0.4301,0.7127 0.0538,0.089 0.3225,0 0.5914,-0.2673z"/>
    <path id="_115536528" class="fil13" d="M1.8248 6.6828c0.2149,-0.2674 0.3762,-0.5345 0.3762,-0.6237 -0.0537,-0.1782 -0.3225,-0.0891 -0.5375,0.1783 -0.2151,0.2672 -0.3763,0.5345 -0.3763,0.6236 0.0538,0.1781 0.3225,0.0891 0.5376,-0.1782z"/>
    <path id="_115536456" class="fil14" d="M1.8248 6.6828c0.2149,-0.2674 0.3225,-0.5345 0.2687,-0.6237 0,-0.0891 -0.215,0 -0.43,0.1783 -0.2151,0.178 -0.3225,0.4454 -0.2688,0.6236 0,0.0891 0.215,0 0.4301,-0.1782z"/>
    <path id="_115536384" class="fil15" d="M1.8248 6.5936c0.1612,-0.1782 0.2687,-0.3562 0.2149,-0.4453 0,-0.0892 -0.1612,0 -0.3762,0.0891 -0.1613,0.178 -0.2688,0.4454 -0.2151,0.5345 0,0.0891 0.1613,0 0.3764,-0.1783z"/>
    <path id="_115536312" class="fil16" d="M1.771 6.5936c0.1613,-0.1782 0.2687,-0.3562 0.215,-0.4453 0,0 -0.1612,0 -0.2688,0.1782 -0.1613,0.0889 -0.2688,0.2672 -0.215,0.3563 0,0.089 0.1613,0 0.2688,-0.0892z"/>
    <path id="_115536240" class="fil0" d="M36.444 15.5926c0.4838,-0.5345 0.8062,-1.0691 0.6988,-1.3363 -0.1075,-0.2674 -0.5913,-0.0891 -1.0752,0.4454 -0.4838,0.4455 -0.8063,1.0692 -0.6988,1.3365 0.1075,0.2673 0.5376,0.0891 1.0752,-0.4456z"/>
    <path id="_115536168" class="fil7" d="M36.3902 15.5926c0.4838,-0.4454 0.7526,-1.0691 0.6988,-1.3363 -0.1075,-0.1782 -0.5375,0 -1.0214,0.4454 -0.43,0.4455 -0.7525,1.0692 -0.645,1.3365 0.1075,0.1783 0.5375,0 0.9676,-0.4456z"/>
    <path id="_115536096" class="fil8" d="M36.3902 15.5036c0.4301,-0.3564 0.6988,-0.891 0.6451,-1.1583 -0.1075,-0.1782 -0.5376,0 -0.9677,0.3564 -0.3763,0.4455 -0.6988,0.9801 -0.5913,1.2474 0.1075,0.1781 0.4838,0 0.9139,-0.4455z"/>
    <path id="_115536024" class="fil9" d="M36.3902 15.5036c0.3762,-0.3564 0.6451,-0.891 0.5375,-1.0692 -0.0537,-0.1781 -0.43,-0.0891 -0.8063,0.3564 -0.4301,0.3564 -0.6451,0.891 -0.5914,1.0692 0.1076,0.1782 0.4839,0.0891 0.8602,-0.3564z"/>
    <path id="_115535952" class="fil10" d="M36.3902 15.5036c0.3225,-0.3564 0.5913,-0.8019 0.4838,-1.0692 -0.0537,-0.1781 -0.3763,0 -0.7526,0.3564 -0.3763,0.3564 -0.5914,0.8019 -0.5376,0.9801 0.1075,0.1781 0.4301,0.0891 0.8064,-0.2673z"/>
    <path id="_115535880" class="fil11" d="M36.3365 15.4144c0.3225,-0.2672 0.5375,-0.7127 0.4837,-0.8909 -0.0538,-0.1783 -0.3763,0 -0.6988,0.2673 -0.3225,0.3564 -0.5376,0.8019 -0.4838,0.9801 0.1075,0.0891 0.3763,0 0.6989,-0.3565z"/>
    <path id="_115535808" class="fil12" d="M36.3365 15.4144c0.2687,-0.2672 0.4837,-0.6236 0.4299,-0.8018 -0.0537,-0.1783 -0.3225,0 -0.645,0.2673 -0.2687,0.2673 -0.4301,0.6237 -0.3763,0.8019 0.0538,0.1782 0.3225,0 0.5914,-0.2674z"/>
    <path id="_115535736" class="fil13" d="M36.3365 15.4144c0.2687,-0.2672 0.4299,-0.6236 0.3762,-0.7127 -0.0537,-0.1782 -0.3225,-0.0891 -0.5376,0.1782 -0.2687,0.2673 -0.43,0.6237 -0.3762,0.7128 0.0538,0.1781 0.2687,0 0.5376,-0.1783z"/>
    <path id="_115535664" class="fil14" d="M36.3365 15.3253c0.215,-0.1781 0.3224,-0.4454 0.3224,-0.6236 -0.0537,-0.0892 -0.2687,0 -0.4838,0.2673 -0.2149,0.1782 -0.3762,0.4455 -0.3225,0.5346 0.0538,0.1782 0.2688,0.0891 0.4839,-0.1783z"/>
    <path id="_115535592" class="fil15" d="M36.2827 15.3253c0.215,-0.1781 0.3225,-0.4454 0.2688,-0.5345 0,-0.0891 -0.2151,0 -0.3764,0.1782 -0.1612,0.1782 -0.3225,0.4455 -0.2687,0.5346 0.0538,0.089 0.215,0 0.3763,-0.1783z"/>
    <path id="_115535520" class="fil16" d="M36.2827 15.2364c0.1613,-0.0892 0.2688,-0.2674 0.215,-0.3565 0,-0.0892 -0.1613,-0.0891 -0.3226,0.0891 -0.1612,0.1782 -0.215,0.3564 -0.215,0.4455 0.0538,0.0891 0.1613,0 0.3226,-0.1781z"/>
   </g>
   <g>
    <path id="_115535424" class="fil5" d="M19.5117 11.0601c0.1341,-0.1493 0.2682,-0.2981 0.2012,-0.4472 0,-0.1491 -0.1341,0 -0.2682,0.1491 -0.1341,0.1488 -0.2682,0.4472 -0.2012,0.5963 0,0 0.1341,0 0.2682,-0.2982z"/>
    <path id="_115535352" class="fil17" d="M20.9115 9.5861c0,-0.3745 0.3029,-0.678 0.6766,-0.678 0.3736,0 0.6767,0.3035 0.6767,0.678l0 3.2771c0,0.083 0.0328,0.1625 0.0913,0.221 0.0584,0.0587 0.1378,0.0917 0.2206,0.0917l1.4931 0c0.0828,0 0.162,-0.033 0.2206,-0.0917 0.0585,-0.0585 0.0914,-0.138 0.0914,-0.221l0 -3.2771c0,-0.3745 0.3029,-0.678 0.6766,-0.678 0.3736,0 0.6766,0.3035 0.6766,0.678l0 3.2771c0,0.083 0.0327,0.1625 0.0914,0.221 0.0584,0.0587 0.1378,0.0917 0.2206,0.0917l1.493 0c0.0828,0 0.1621,-0.033 0.2207,-0.0917 0.0585,-0.0585 0.0914,-0.138 0.0914,-0.221l0 -3.7136c0,-0.9137 -0.5307,-1.7439 -1.3589,-2.126 -0.8282,-0.3821 -1.8025,-0.2462 -2.4951,0.348 -0.8931,-0.7661 -2.2153,-0.7475 -3.0866,0.0434l0 -0.1704c0,-0.083 -0.0329,-0.1624 -0.0913,-0.2211 -0.0586,-0.0586 -0.1379,-0.0916 -0.2207,-0.0916l-1.5039 0c-0.0828,0 -0.1622,0.033 -0.2207,0.0916 -0.0585,0.0587 -0.0914,0.1381 -0.0914,0.2211l0 5.6186c0,0.083 0.0329,0.1625 0.0914,0.221 0.0585,0.0587 0.1379,0.0917 0.2207,0.0917l1.5039 0c0.0828,0 0.1621,-0.033 0.2207,-0.0917 0.0584,-0.0585 0.0913,-0.138 0.0913,-0.221l0 -3.2771z"/>
    <path id="_115535280" class="fil18" d="M15.078 7.0483c0,-0.068 -0.0276,-0.133 -0.0765,-0.1801 -0.0488,-0.0471 -0.1146,-0.0723 -0.1825,-0.0699 -0.592,0.0222 -1.1618,0.2314 -1.628,0.5977l0 -0.1472c0,-0.083 -0.0328,-0.1625 -0.0913,-0.2212 -0.0586,-0.0586 -0.1379,-0.0916 -0.2207,-0.0916l-1.5045 0c-0.0828,0 -0.1622,0.033 -0.2207,0.0916 -0.0585,0.0587 -0.0914,0.1382 -0.0914,0.2212l0 5.6144c0,0.083 0.0329,0.1625 0.0914,0.221 0.0585,0.0587 0.1379,0.0917 0.2207,0.0917l1.5045 0c0.0828,0 0.1621,-0.033 0.2207,-0.0917 0.0585,-0.0585 0.0913,-0.138 0.0913,-0.221l0 -2.7211c0,-0.3318 0.1315,-0.6498 0.3656,-0.8844 0.234,-0.2345 0.5514,-0.3663 0.8825,-0.3663l0.3269 0c0.0828,0 0.1621,-0.0329 0.2206,-0.0916 0.0585,-0.0586 0.0914,-0.1382 0.0914,-0.2211l0 -1.5322 0 0.0018z"/>
    <polygon id="_115535208" class="fil19" points="24.3829,9.6751 24.3856,10.7135 "/>
    <path id="_115535136" class="fil17" d="M15.8739 6.8588c-0.0585,0.0608 -0.0914,0.1433 -0.0914,0.2294l0 5.83c0,0.0861 0.0329,0.1686 0.0914,0.2293 0.0585,0.0609 0.1379,0.0951 0.2206,0.0951l1.4879 0c0.0828,0 0.1622,-0.0342 0.2206,-0.0951 0.0586,-0.0607 0.0915,-0.1432 0.0915,-0.2293l0 -5.83c0,-0.0861 -0.0329,-0.1686 -0.0915,-0.2294 -0.0584,-0.0608 -0.1378,-0.0951 -0.2206,-0.0951l-1.4879 0c-0.0827,0 -0.1621,0.0343 -0.2206,0.0951l0 0z"/>
    <path id="_115535064" class="fil5" d="M7.0688 11.141c-0.6092,0 -1.1031,-0.495 -1.1031,-1.1054 0,-0.6105 0.4939,-1.1054 1.1031,-1.1054 0.6093,0 1.1031,0.4949 1.1031,1.1054 0,0.6104 -0.4938,1.1054 -1.1031,1.1054l0 0z"/>
    <path id="_115534992" class="fil17" d="M17.8945 5.2751c0,0.5833 -0.4728,1.056 -1.056,1.056 -0.5832,0 -1.056,-0.4727 -1.056,-1.056 0,-0.5832 0.4728,-1.056 1.056,-1.056 0.5832,0 1.056,0.4728 1.056,1.056l0 0z"/>
    <rect id="_115534920" class="fil17" x="31.8893" y="10.0356" width="3.27602" height="3.27602"/>
    <path id="_115534848" class="fil17" d="M35.1653 10.0356c0,-1.8093 -1.4666,-3.276 -3.2759,-3.276 -1.8093,0 -3.276,1.4667 -3.276,3.276 0,1.8093 1.4667,3.276 3.276,3.276 1.8093,0 3.2759,-1.4667 3.2759,-3.276l0 0z"/>
    <path id="_115534776" class="fil5" d="M32.9925 10.0356c0,-0.6105 -0.4939,-1.1054 -1.1031,-1.1054 -0.6093,0 -1.1032,0.4949 -1.1032,1.1054 0,0.6104 0.4939,1.1054 1.1032,1.1054 0.6092,0 1.1031,-0.495 1.1031,-1.1054l0 0z"/>
    <path id="_115534704" class="fil18" d="M5.648 15.2795c0.0827,0 0.1621,-0.0329 0.2206,-0.0916 0.0584,-0.0586 0.0913,-0.1381 0.0913,-0.2212l0 -1.8592c1.3447,0.482 2.846,0.0354 3.7105,-1.1036 0.8646,-1.1391 0.8933,-2.7082 0.0708,-3.8782 -0.8224,-1.17 -2.3063,-1.6713 -3.6677,-1.2391 -1.3614,0.4323 -2.2865,1.6985 -2.2865,3.1297l0 4.9504c0,0.0831 0.0329,0.1626 0.0914,0.2212 0.0585,0.0587 0.1379,0.0916 0.2206,0.0916l1.549 0z"/>
    <path id="_115534632" class="fil5" d="M7.063 11.1217c-0.6092,0 -1.1031,-0.495 -1.1031,-1.1054 0,-0.6104 0.4939,-1.1054 1.1031,-1.1054 0.6093,0 1.1031,0.495 1.1031,1.1054 0,0.6104 -0.4938,1.1054 -1.1031,1.1054l0 0z"/>
   </g>
   <rect id="_115534536" class="fil5" x="9.15506" y="17.469" width="19.6898" height="3.5506"/>
   <g>
    <path id="_115534464" class="fil20" d="M14.2551 16.3108l-0.1269 0.3357 -0.8876 0 -0.2789 0.8018c-0.634,1.9766 -1.5217,2.6852 -2.105,2.6852 -0.2283,0 -0.4312,-0.0932 -0.4312,-0.2797 0.0001,-0.1865 0.2029,-0.2797 0.4312,-0.2797l0.3043 0c0.2029,0 0.3297,-0.0373 0.4058,-0.1678 0.1269,-0.1865 0.2029,-0.5222 0.2536,-0.7273l0.7609 -2.0325 -0.6848 0 0.1014 -0.3357 0.7101 0c0.2283,-0.5594 0.9891,-1.5663 1.9021,-1.5663 0.2536,-0.0001 0.5833,0.1305 0.5833,0.3543 0.0001,0.1678 -0.2282,0.261 -0.4311,0.261 -0.2282,0 -0.3804,-0.1678 -0.5833,-0.1678 -0.4818,0 -0.6848,0.8392 -0.8116,1.1188l0.8877 0z"/>
    <path id="_115534392" class="fil20" d="M15.7768 16.6451c0.355,0 0.4818,0.3024 0.4818,0.5615 0,0.5831 -0.634,2.5054 -1.4963,2.5054 -0.355,0 -0.5073,-0.2376 -0.5073,-0.5184 0.0001,-0.5832 0.6341,-2.5485 1.5218,-2.5485zm0.0253 -0.2376c-1.2173,0 -2.2064,1.555 -2.2064,2.4621 0,0.5832 0.4565,1.0799 1.1666,1.0799 0.9891,0 2.1557,-1.2743 2.1557,-2.4405 0,-0.6911 -0.5833,-1.1015 -1.1159,-1.1015z"/>
    <path id="_115534320" class="fil20" d="M19.1752 16.6451c0.3804,0 0.4818,0.3024 0.4818,0.5615 0.0001,0.5831 -0.634,2.5054 -1.4709,2.5054 -0.355,0 -0.5073,-0.2376 -0.5073,-0.5184 0.0001,-0.5832 0.6341,-2.5485 1.4964,-2.5485zm0.0506 -0.2376c-1.2172,0 -2.2317,1.555 -2.2317,2.4621 0,0.5832 0.4565,1.0799 1.1666,1.0799 1.0145,0 2.1811,-1.2743 2.1811,-2.4405 0,-0.6911 -0.5834,-1.1015 -1.116,-1.1015z"/>
    <path id="_95341576" class="fil20" d="M22.6243 16.7315c0.3296,0 0.4311,0.2592 0.4311,0.4751 0,0.5831 -0.8116,2.3757 -1.6231,2.3757 -0.2536,0 -0.3044,-0.2807 -0.3044,-0.4535 0,-0.4104 0.2537,-1.0799 0.4566,-1.4254 0.1776,-0.324 0.5833,-0.9719 1.0398,-0.9719zm0.6594 -0.1296c-0.2283,-0.108 -0.3805,-0.1944 -0.6594,-0.1944 -0.9891,0 -2.2318,1.5118 -2.2318,2.5917 0,0.4103 0.2282,0.9503 0.7862,0.9503 0.5834,0 1.0144,-0.4319 1.2934,-0.8207l0.0253 0.0216c-0.0506,0.108 -0.1014,0.2376 -0.1014,0.3672 0,0.2375 0.2283,0.4319 0.4819,0.4319 0.6087,0 1.0398,-0.7775 1.2427,-1.1663l-0.2282 -0.0863c-0.1015,0.1727 -0.4059,0.8207 -0.6595,0.8207 -0.1014,0 -0.1268,-0.108 -0.1268,-0.1944 0.0001,-0.0648 0.0254,-0.1944 0.0507,-0.2808l1.3949 -4.2763 -1.3948 0.1943 -0.0507 0.2376c0.3043,0 0.5325,-0.0432 0.5325,0.1728 0.0001,0.0864 -0.0507,0.216 -0.0761,0.3024l-0.2789 0.9287z"/>
    <path id="_114337464" class="fil20" d="M23.9684 19.2368c0,-0.1728 0.1522,-0.3456 0.3804,-0.3456 0.5834,0 0.279,0.7344 0.9638,0.7344 0.355,-0.0001 0.6086,-0.1944 0.6086,-0.4968 0,-0.6695 -1.3695,-0.8639 -1.3695,-1.7494 0,-0.5183 0.5833,-0.9719 1.2935,-0.9719 0.4311,0 1.0397,0.2376 1.0397,0.6695 0,0.1728 -0.1521,0.3024 -0.3804,0.3024 -0.4058,0 -0.3804,-0.6479 -0.8876,-0.6479 -0.2789,0 -0.4311,0.2592 -0.4311,0.4751 0,0.6264 1.3695,0.8207 1.3695,1.7278 0,0.4967 -0.558,1.0151 -1.3695,1.0151 -0.6341,0 -1.2174,-0.3239 -1.2174,-0.7127z"/>
   </g>
  </g>
 </g>
</svg>
